<?xml version="1.0" encoding="UTF-8" standalone="no"?>
<!DOCTYPE svg PUBLIC "-//W3C//DTD SVG 1.1//EN" "http://www.w3.org/Graphics/SVG/1.1/DTD/svg11.dtd">
<svg width="100%" height="100%" viewBox="0 0 656 656" version="1.1" xmlns="http://www.w3.org/2000/svg" xmlns:xlink="http://www.w3.org/1999/xlink" xml:space="preserve" xmlns:serif="http://www.serif.com/" style="fill-rule:evenodd;clip-rule:evenodd;stroke-linejoin:round;stroke-miterlimit:2;">
    <g transform="matrix(0.64,0,0,0.64,0,0)">
        <g transform="matrix(1.11304,0,0,1.11304,-66.7826,-89.0435)">
            <path d="M980,241.719C980,152.464 907.536,80 818.281,80L221.719,80C132.464,80 60,152.464 60,241.719L60,838.281C60,927.536 132.464,1000 221.719,1000L818.281,1000C907.536,1000 980,927.536 980,838.281L980,241.719Z" style="fill:url(#_Linear1);"/>
        </g>
        <g transform="matrix(1,0,0,1,-18.6611,24.5228)">
            <path d="M512,125.5C725.315,125.5 898.5,298.685 898.5,512C898.5,725.315 725.315,898.5 512,898.5C298.685,898.5 125.5,725.315 125.5,512C125.5,298.685 298.685,125.5 512,125.5ZM512,203C682.542,203 821,341.458 821,512C821,682.542 682.542,821 512,821C341.458,821 203,682.542 203,512C203,341.458 341.458,203 512,203Z" style="fill:rgb(217,234,236);"/>
        </g>
        <g transform="matrix(0.991979,-0.126403,0.126403,0.991979,-63.9509,66.6963)">
            <path d="M543.5,200.389C543.5,188.279 549.135,176.858 558.747,169.491C568.358,162.124 580.851,159.65 592.545,162.797C757.93,206.606 880,357.41 880,536.5C880,749.815 706.815,923 493.5,923C280.185,923 107,749.815 107,536.5C107,410.968 166.976,299.333 259.808,228.713C275.265,217.045 296.956,218.545 310.66,232.231C310.653,232.295 310.682,232.323 310.711,232.351C318.667,240.101 322.84,250.939 322.138,262.023C321.435,273.107 315.926,283.331 307.056,290.014C232.641,346.533 184.5,435.939 184.5,536.5C184.5,707.042 322.958,845.5 493.5,845.5C664.042,845.5 802.5,707.042 802.5,536.5C802.5,393.15 704.675,272.468 572.201,237.629C555.311,233.15 543.551,217.864 543.551,200.389C543.5,200.389 543.5,200.389 543.5,200.389Z" style="fill:rgb(116,166,76);"/>
        </g>
        <g transform="matrix(0.644762,0,0,0.683824,493.339,534.941)">
            <g transform="matrix(1,0,0,1,-256,-256)">
                <g>
                    <path d="M224,0C206.328,0 192,14.312 192,32L192,192L160,192L160,32C160,14.312 145.672,0 128,0C110.328,0 96,14.312 96,32L96,192L64,192L64,32C64,14.312 49.672,0 32,0C14.328,0 0,14.312 0,32L0,224C0,241.688 14.328,256 32,256L96,256L96,480C96,497.688 110.328,512 128,512C145.672,512 160,497.688 160,480L160,256L224,256C241.672,256 256,241.688 256,224L256,32C256,14.312 241.672,0 224,0Z" style="fill:rgb(217,217,217);fill-rule:nonzero;"/>
                </g>
                <path d="M448,0C448,0 384,20.656 384,96L384,160C384,201.75 410.797,236.906 448,250.125L448,480C448,497.688 462.327,512 480,512C497.672,512 512,497.688 512,480L512,0L448,0Z" style="fill:rgb(217,217,217);fill-rule:nonzero;"/>
            </g>
        </g>
    </g>
    <defs>
        <linearGradient id="_Linear1" x1="0" y1="0" x2="1" y2="0" gradientUnits="userSpaceOnUse" gradientTransform="matrix(-1.79688,-1320.7,1320.7,-1.79688,520,960.469)"><stop offset="0" style="stop-color:rgb(188,213,55);stop-opacity:1"/><stop offset="1" style="stop-color:rgb(132,155,8);stop-opacity:1"/></linearGradient>
    </defs>
</svg>
